<?xml version="1.0" encoding="UTF-8"?>
<svg xmlns="http://www.w3.org/2000/svg" version="1.1" viewBox="0 0 2000 1750.37">
  <defs>
    <style>
      .cls-1 {
        fill: #f9ed3b;
      }
    </style>
  </defs>
  <!-- Generator: Adobe Illustrator 28.7.1, SVG Export Plug-In . SVG Version: 1.2.0 Build 142)  -->
  <g>
    <g id="Layer_1">
      <path class="cls-1" d="M728.41,1008.01c-22.41-9.41-44.55-19.56-67.42-27.68-5.54-1.97-14.67.97-20.11,4.66-106.2,71.89-212.66,143.41-317.76,216.88-39.07,27.31-74.81,59.4-112.06,89.32-2.87,2.3-5.61,4.78-8.59,6.94-36.62,26.55-61.55,18.36-74.06-24.69-4.11-14.13-7.24-28.56-10.4-42.94-6.18-28.11-12.7-55.84-50.39-65.41,10.27-11.03,17.05-20.14,25.56-27.16,44.48-36.68,88.36-74.2,134.41-108.82,59.28-44.56,120.44-86.62,180.74-129.82,5.3-3.8,10.25-8.1,19.12-15.15-31-11.67-57.73-23.43-85.5-31.65-21.62-6.4-35.95-18-41.91-39.37-6.26-22.46-11.75-45.13-17.59-67.71-4.86-18.79-14.06-33.3-33.78-40.34-13.96-4.98-13.92-11.02-1.68-20,18.5-13.57,38.23-14.71,59.3-6.5,85.19,33.21,170.7,65.61,255.49,99.79,18.27,7.36,31.71,5.72,47.62-4.79,248.95-164.5,504.6-318,764.35-464.75,61.98-35.02,124.11-69.78,186.12-104.75,5.52-3.12,10.67-6.9,16-10.37-.46-1.81-.93-3.61-1.39-5.42-25.81,1.6-51.69,2.56-77.43,4.93-71.44,6.57-142.83,13.79-214.24,20.63-67.16,6.44-134.33,12.79-201.51,19.05-53.13,4.95-106.47,8.13-159.36,14.89-87.54,11.18-175,23.42-262.1,37.57-46.53,7.56-92.7,18.41-138.24,30.7-70.99,19.17-105.19,99.14-76.88,166.8,14.3,34.19,21.27,71.54,30.38,107.76,4.58,18.2-11.54,22.54-23.37,27.86-18.39,8.27-35.01,4.9-44-10.37-7.68-13.04-12.83-27.79-17.56-42.29-5.7-17.48-9.79-35.49-14.54-53.28-4.21-15.76-12.89-26.91-28.69-33.47-6.02-2.5-11.81-10.26-13.88-16.83-12.14-38.53-21.91-77.83-34.85-116.07-19.32-57.09,3.02-101.35,39.21-142.87,34.16-39.2,79.72-55.68,128.23-66.77,126.88-29,254.44-53.57,384.44-64.45,124.69-10.43,249.24-22.59,373.83-34.29,88.55-8.32,176.91-19,265.6-25.22,91.18-6.39,182.63-8.85,273.99-12.49,13.38-.53,26.88,1.98,40.33,2.96,39.65,2.9,62.45,25.01,71.85,62.64,5.06,20.24,8.66,41.07,16.19,60.37,3.96,10.17,13.42,20.28,23.05,25.74,23.45,13.31,29.37,33.43,8.89,51.82-24.06,21.59-49.82,42.3-77.69,58.46-157.63,91.42-315.87,181.78-474.36,271.7-186.34,105.72-369.66,216.37-548.82,333.86-3.99,2.62-7.65,5.74-13.88,10.45,5.43,4.14,8.98,8.07,13.41,10,16.3,7.09,32.47,15.28,49.57,19.42,8.55,2.07,20.32-1.5,28.39-6.3,83.34-49.51,165.94-100.27,249.36-149.64,42.77-25.31,90-53.81,132.01-80.26,52.35-32.96,99.45-63.9,152.01-96.51,38.69-19.04,72.7-37.72,109.61-55.5,15.18-7.32,27.5-3.19,38.19,11.2,16.28,21.91,30.09,43.9,31.58,72.43.66,12.59,3.9,26.24,10.12,37.02,7.23,12.54,17.43,24.79,29.27,32.85,11.14,7.58,12.51,12.77,3.23,20.66-7.87,6.69-16.2,14.41-25.68,17.41-79.63,35.34-139.41,72.96-212.45,112.15-122.53,60.93-223,129.21-334.54,193.75-6.07,3.51-11.33,8.44-19.59,14.71,13.66,10.56,24.59,20.16,36.64,28.07,24.91,16.36,41.19,38.06,46.31,67.8,1.35,7.84,4.71,15.39,5.61,23.25,2.92,25.47,14.99,44.28,36.43,58.72,18.12,12.21,16.55,19.02-2.86,29.45-20.43,10.98-38.08,6.85-56.46-6.13-54.12-38.21-109.18-75.1-163.41-113.15-16.6-11.64-29.48-9.56-46.33,1.47-196.77,128.84-383.77,271.24-572.65,411.02-5.13,3.8-9.53,8.58-18.36,16.63,10.54.47,15.68,1.18,20.74.84,47.14-3.1,94.26-6.38,141.39-9.61,76.52-5.24,153.02-10.78,229.57-15.64,101.04-6.42,202.11-12.44,303.19-18.37,102.31-6,204.9-8.77,306.88-18.27,110.69-10.32,220.34-29.12,324.95-69.37,80.99-31.16,144.73-82.07,182.36-162.1,3.3-7.01,5.17-14.7,9.1-26.16-9.61,1.8-16.2,1.71-21.5,4.27-18.21,8.82-35.87,18.79-53.95,27.9-11.48,5.78-22.96,12.01-35.12,15.92-21.41,6.88-37.9-.3-46.62-21.01-6.39-15.16-10.8-31.32-14.56-47.4-7.45-31.81-11.91-65.06-53.75-77.52,8.52-7.83,13.26-14.45,19.7-17.74,39.82-20.34,78.88-42.96,120.51-58.67,25.5-9.62,55.11-10.72,82.94-11.13,28.32-.42,51.35,15.83,64.16,40.19,14.41,27.41,23.48,57.58,35.92,86.09,4.42,10.13,10.32,20.65,18.28,28.02,27.22,25.18,38.05,56.06,37.32,92.34-1.76,87.33-43.63,154.31-106.96,209.93-69.61,61.13-153.67,93.41-241.55,116.72-108.3,28.73-218.69,45.14-330.54,51.22-144.62,7.86-289.32,14.4-433.88,23.11-121.87,7.35-243.69,15.84-365.36,25.98-108.17,9.02-216.05,21.59-324.17,31.24-24.82,2.21-50.29.33-75.19-2.29-29.44-3.09-49.93-19.78-58.58-48.66-6.68-22.33-12.29-44.99-18.05-67.58-3.86-15.15-11.47-26.07-26.68-32.67-20.01-8.68-24.69-21.73-11.79-39.68,13.07-18.19,28.33-36,46.07-49.46,111.93-84.94,224.14-169.53,337.57-252.45,105.49-77.11,212.62-151.98,319-227.88,6.32-4.51,12.4-9.35,18.59-14.04-.01-2.22-.02-4.45-.03-6.67Z"/>
    </g>
  </g>
</svg>